<?xml version="1.0" encoding="utf-8"?>
<!-- Generator: Adobe Illustrator 25.0.1, SVG Export Plug-In . SVG Version: 6.00 Build 0)  -->
<svg version="1.2" baseProfile="tiny" id="layer" xmlns="http://www.w3.org/2000/svg" xmlns:xlink="http://www.w3.org/1999/xlink"
	 x="0px" y="0px" viewBox="0 0 652 128" overflow="visible" xml:space="preserve" fill="#FFFFFF">
<g>
	<path  d="M260.6,81.7c-8.4,0-15.2-6.8-15.2-15.2s6.8-15.2,15.2-15.2s15.2,6.8,15.2,15.2S269.1,81.7,260.6,81.7 M260.6,15.4
		c-25.9,0-46.3,17.7-50.3,42.2V28c0-7.6-3.3-10.9-10.9-10.9h-25.6v38.5l-21.9-29.8c-4.8-6.3-9.5-8.7-17.4-8.7H21.2v26.2
		c0,7.5,3.2,10.7,10.7,10.7h17v50.9c0,7.6,3.3,10.9,10.9,10.9h27.8V54H111v50.9c0,7.6,3.3,10.9,10.9,10.9h25.7V77.3l21.9,29.8
		c4.8,6.3,9.5,8.7,17.4,8.7h23.6V75.6c4,24.7,23.9,41.8,50.3,41.8c28.9,0,51.1-22.2,51.1-51.1C311.7,36.8,290.3,15.4,260.6,15.4"/>
	<path d="M483.6,97c0.4-5.2,3.3-8.1,7.3-8.1c4.6,0,7.3,2.8,7.5,8.1H483.6z M483.4,101.3h22.3v-1.1c0-10.1-5.8-16.3-14.8-16.3
		c-8.8,0-14.9,6.6-14.9,16.5s6,16.3,15.1,16.3c7.1,0,12.1-3.5,14.3-9.8l-6.7-0.7c-1.1,3.4-3.9,5.3-7.3,5.3c-4.9,0-8-3.6-8-9.9V101.3
		z M476.2,73.7c-1.9-0.4-3.9-0.5-6-0.5c-6.8,0-10,3.5-10,11v0.6h-5.1v4.8h5.1v26.3h6.8V89.6h7.4v-4.8H467v-0.9
		c0-3.8,1.5-5.5,5.1-5.5c1,0,2.4,0.1,4.1,0.4V73.7z M442.4,115.8h7.1V84.7h-7.1V115.8z M442.4,79.6h7.1v-5.8h-7.1V79.6z
		 M425.3,115.8h7.1v-42h-7.1V115.8z M407.2,84c-0.6-0.1-1.1-0.1-1.6-0.1c-4.4,0-7.2,2.5-8.8,7.6v-6.7h-6.3v31.1h7v-15.4
		c0-6.1,3.3-9.8,8.3-9.8c0.3,0,0.8,0,1.5,0.1L407.2,84L407.2,84z M369.9,89c4.5,0,7.4,4,7.4,11.3s-2.9,11.3-7.4,11.3
		c-4.6,0-7.4-3.9-7.4-11.3C362.5,93,365.3,89,369.9,89 M369.9,83.9c-8.8,0-14.8,6.4-14.8,16.4s6,16.4,14.8,16.4s14.9-6.4,14.9-16.4
		S378.7,83.9,369.9,83.9 M353.8,73.7c-1.9-0.4-3.9-0.5-6-0.5c-6.8,0-10,3.5-10,11v0.6h-5.1v4.8h5.1v26.3h6.8V89.6h7.4v-4.8h-7.6
		v-0.9c0-3.8,1.5-5.5,5.1-5.5c1,0,2.4,0.1,4.1,0.4v-5.1H353.8z"/>
	<path d="M595,27.7v31.1h6.8V41c0-5.4,3.2-8.8,7.2-8.8c3.4,0,5.3,2.3,5.3,6.8v19.8h6.8V38.9c0-8-3.3-12-10.1-12
		c-4.2,0-7.4,2.1-9.6,6.2v-5.3L595,27.7L595,27.7z M573.7,32c4.5,0,7.4,4,7.4,11.3s-2.9,11.3-7.4,11.3c-4.6,0-7.4-3.9-7.4-11.3
		C566.3,36,569.1,32,573.7,32 M573.7,26.9c-8.8,0-14.8,6.4-14.8,16.4s6,16.4,14.8,16.4s14.9-6.4,14.9-16.4
		C588.6,33.3,582.5,26.9,573.7,26.9 M545.5,58.8h7.1V27.7h-7.1V58.8z M545.5,22.6h7.1v-5.8h-7.1V22.6z M530.3,19.1l-6.5,0.5l-0.2,8
		h-5.4v4.8h5.2V48c0,8.1,2.4,11.6,9.8,11.6c1.6,0,3.3-0.2,5-0.6v-5.4c-1.2,0.3-2.4,0.4-3.5,0.4c-3.7,0-4.4-2-4.4-6.5V32.4h7v-4.8h-7
		V19.1z M506.2,43.3v2.2c0,5.1-3.6,9-8.2,9c-3.5,0-5.6-1.9-5.6-4.7c0-4.4,4.1-6.6,12.2-6.6h1.6V43.3z M485.9,35.8l6.5,0.8
		c0.7-3.2,3.1-4.8,7.3-4.8c4.4,0,6.5,1.9,6.5,5.8v1.6h-0.7c-13.7,0-20.5,3.6-20.5,11.1c0,5.4,4.2,9.3,10.7,9.3
		c4.7,0,8.4-2.2,10.5-6.2c0.1,2,0.2,3.8,0.7,5.4h7c-0.7-1.6-0.9-3.7-0.9-6.2V39c0-8.5-3.6-12.2-12.6-12.2
		C492.2,26.9,487.3,29.9,485.9,35.8 M464.2,58.8h6.4l11-31.1h-5.7l-7.7,23.7l-7.7-23.7h-7.1L464.2,58.8z M435.4,32
		c4.5,0,7.4,4,7.4,11.3s-2.9,11.3-7.4,11.3c-4.6,0-7.4-3.9-7.4-11.3C428,36,430.8,32,435.4,32 M435.4,26.9
		c-8.8,0-14.8,6.4-14.8,16.4s6,16.4,14.8,16.4s14.9-6.4,14.9-16.4C450.3,33.3,444.2,26.9,435.4,26.9 M388.1,27.7v31.1h6.8V41
		c0-5.4,3.2-8.8,7.2-8.8c3.4,0,5.3,2.3,5.3,6.8v19.8h6.8V38.9c0-8-3.3-12-10.1-12c-4.2,0-7.4,2.1-9.6,6.2v-5.3L388.1,27.7
		L388.1,27.7z M353.7,27.7v31.1h6.8V41c0-5.4,3.2-8.8,7.2-8.8c3.4,0,5.3,2.3,5.3,6.8v19.8h6.8V38.9c0-8-3.3-12-10.1-12
		c-4.2,0-7.4,2.1-9.6,6.2v-5.3L353.7,27.7L353.7,27.7z M335.6,58.8h7.1V27.7h-7.1V58.8z M335.6,22.6h7.1v-5.8h-7.1V22.6z"/>
</g>
</svg>
